<svg width="200" height="200" viewBox="0 0 200 200" fill="none" xmlns="http://www.w3.org/2000/svg">
  <!-- Background Circle -->
  <circle cx="100" cy="100" r="95" fill="url(#gradient)" opacity="0.1"/>

  <!-- Quantum Particles -->
  <circle cx="100" cy="60" r="8" fill="#8B5CF6"/>
  <circle cx="130" cy="80" r="6" fill="#A78BFA"/>
  <circle cx="70" cy="80" r="6" fill="#A78BFA"/>
  <circle cx="100" cy="100" r="12" fill="#8B5CF6"/>
  <circle cx="140" cy="110" r="5" fill="#C4B5FD"/>
  <circle cx="60" cy="110" r="5" fill="#C4B5FD"/>
  <circle cx="100" cy="140" r="7" fill="#8B5CF6"/>

  <!-- Connection Lines (wave-like) -->
  <path d="M100 60 Q115 70 130 80" stroke="#8B5CF6" stroke-width="2" fill="none" opacity="0.6"/>
  <path d="M100 60 Q85 70 70 80" stroke="#8B5CF6" stroke-width="2" fill="none" opacity="0.6"/>
  <path d="M130 80 L100 100" stroke="#A78BFA" stroke-width="2" opacity="0.4"/>
  <path d="M70 80 L100 100" stroke="#A78BFA" stroke-width="2" opacity="0.4"/>
  <path d="M100 100 Q120 105 140 110" stroke="#8B5CF6" stroke-width="2" fill="none" opacity="0.6"/>
  <path d="M100 100 Q80 105 60 110" stroke="#8B5CF6" stroke-width="2" fill="none" opacity="0.6"/>
  <path d="M140 110 L100 140" stroke="#A78BFA" stroke-width="1.5" opacity="0.3"/>
  <path d="M60 110 L100 140" stroke="#A78BFA" stroke-width="1.5" opacity="0.3"/>
  <path d="M100 100 L100 140" stroke="#8B5CF6" stroke-width="2" opacity="0.5"/>

  <!-- Central "Q" Letter -->
  <text x="100" y="110" font-family="Arial, sans-serif" font-size="48" font-weight="bold" fill="#8B5CF6" text-anchor="middle">Q</text>

  <!-- Gradient Definition -->
  <defs>
    <linearGradient id="gradient" x1="0%" y1="0%" x2="100%" y2="100%">
      <stop offset="0%" style="stop-color:#8B5CF6;stop-opacity:1" />
      <stop offset="100%" style="stop-color:#A78BFA;stop-opacity:1" />
    </linearGradient>
  </defs>
</svg>
